<svg aria-hidden="true" style="position: absolute; width: 0; height: 0; overflow: hidden;" version="1.1" xmlns="http://www.w3.org/2000/svg" xmlns:xlink="http://www.w3.org/1999/xlink">
<defs>
<symbol id="icon-logo" viewBox="0 0 262 32">
<path fill="#fff" style="fill: var(--color1, #fff)" d="M60.593 11.608h-21.935l-0.787 0.617v19.144h6.035v-7.206l0.553-0.538h16.132c4.081 0 5.958-1.080 5.958-3.848v-4.403c0-2.692-1.877-3.767-5.956-3.767zM60.593 18.682c0 1.308-0.864 1.521-2.824 1.521h-13.207l-0.631-0.538v-4.056l0.553-0.536h13.325c1.882 0 2.824 0.226 2.824 1.521v2.074l-0.041 0.015zM77.698 15.223l5.252 7.537-0.314 0.695h-11.603l-2.978 3.61h17.25l1.252 0.696 2.667 3.608h6.976l-15.285-19.991zM146.925 27.526v-5.38l0.631-0.538h11.682v-3.383h-18.502v13.144h27.283v-3.383h-20.384zM168.256 11.614h-27.52v3.689h27.52v-3.689zM110.084 15.147h22.187c-0.316-2.769-2.12-3.55-6.509-3.55h-15.917c-5.015 0-6.588 0.922-6.588 4.691v10.466c0 3.693 1.553 4.693 6.588 4.693h15.9c4.469 0 6.206-0.847 6.351-3.693h-22.029l-0.631-0.614v-11.531zM22.974 19.294h-16.072l-0.471-0.536v-3.383l0.471-0.384h21.719l0.311-0.691c-0.704-1.845-2.664-2.767-6.206-2.767h-15.119c-5.016 0-6.583 0.922-6.583 4.689v2.232c0 3.686 1.551 4.691 6.583 4.691h16.075l0.471 0.461v3.55l-0.392 0.536h-23.209s-0.552 0.309-0.552 0.386c0.393 2.616 2.197 3.305 6.511 3.305h16.463c5.016 0 6.665-0.922 6.665-4.691v-2.707c0-3.688-1.649-4.691-6.664-4.691zM185.583 11.531h-9.096l-0.471 0.922 10.037 7.228c1.882-1.077 3.996-2.152 6.204-3.232zM193.737 25.065l8.858 6.306h9.096l0.393-0.847-13.171-9.459c-1.728 1.308-3.531 2.616-5.171 4z"></path>
<path fill="#b2b0b2" style="fill: var(--color2, #b2b0b2)" d="M184.248 31.369h-8.23l-0.704-1.073c5.562-5.312 30.507-27.895 84.672-30.296 0 0-45.395 1.521-75.738 31.369z"></path>
</symbol>
</defs>
</svg>
